HIERARCHY
ROOT hip
{
OFFSET -0.06 92.22 1.50
CHANNELS 6 Xposition Yposition Zposition Zrotation Xrotation Yrotation
JOINT abdomen
{
OFFSET 0 7.23 0
CHANNELS 6 Xposition Yposition Zposition Zrotation Xrotation Yrotation
JOINT chest
{
OFFSET 0 16.54 0
CHANNELS 6 Xposition Yposition Zposition Zrotation Xrotation Yrotation
JOINT neck
{
OFFSET 0 34.21 0
CHANNELS 6 Xposition Yposition Zposition Zrotation Xrotation Yrotation
JOINT head
{
OFFSET 0 6.29 0
CHANNELS 6 Xposition Yposition Zposition Zrotation Xrotation Yrotation
End Site
{
OFFSET 0 21.21 0
}
}
}
JOINT lCollar
{
OFFSET 4.06 26.61 -1.12
CHANNELS 6 Xposition Yposition Zposition Zrotation Xrotation Yrotation
JOINT lShldr
{
OFFSET 14.17 0 0
CHANNELS 6 Xposition Yposition Zposition Zrotation Xrotation Yrotation
JOINT lForeArm
{
OFFSET 26.12 0 0
CHANNELS 6 Xposition Yposition Zposition Zrotation Xrotation Yrotation
JOINT lHand
{
OFFSET 27.71 0 0
CHANNELS 6 Xposition Yposition Zposition Zrotation Xrotation Yrotation
JOINT lThumb1
{
OFFSET 2.29 -0.46 1.83
CHANNELS 6 Xposition Yposition Zposition Zrotation Xrotation Yrotation
JOINT lThumb2
{
OFFSET 5.29 0 0
CHANNELS 6 Xposition Yposition Zposition Zrotation Xrotation Yrotation
JOINT lThumb3
{
OFFSET 3.01 0 0
CHANNELS 6 Xposition Yposition Zposition Zrotation Xrotation Yrotation
End Site
{
OFFSET 2.62 0 0
}
}
}
}
JOINT lIndex1
{
OFFSET 9.37 0.29 2.59
CHANNELS 6 Xposition Yposition Zposition Zrotation Xrotation Yrotation
JOINT lIndex2
{
OFFSET 4.34 0 0
CHANNELS 6 Xposition Yposition Zposition Zrotation Xrotation Yrotation
JOINT lIndex3
{
OFFSET 2.16 0 0
CHANNELS 6 Xposition Yposition Zposition Zrotation Xrotation Yrotation
End Site
{
OFFSET 2.20 0 0
}
}
}
}
JOINT lMid1
{
OFFSET 9.47 0.83 0.29
CHANNELS 6 Xposition Yposition Zposition Zrotation Xrotation Yrotation
JOINT lMid2
{
OFFSET 4.77 0 0
CHANNELS 6 Xposition Yposition Zposition Zrotation Xrotation Yrotation
JOINT lMid3
{
OFFSET 2.87 0 0
CHANNELS 6 Xposition Yposition Zposition Zrotation Xrotation Yrotation
End Site
{
OFFSET 2.09 0 0
}
}
}
}
JOINT lRing1
{
OFFSET 8.65 1.01 -1.70
CHANNELS 6 Xposition Yposition Zposition Zrotation Xrotation Yrotation
JOINT lRing2
{
OFFSET 4.54 0 0
CHANNELS 6 Xposition Yposition Zposition Zrotation Xrotation Yrotation
JOINT lRing3
{
OFFSET 2.50 0 0
CHANNELS 6 Xposition Yposition Zposition Zrotation Xrotation Yrotation
End Site
{
OFFSET 2.20 0 0
}
}
}
}
JOINT lPinky1
{
OFFSET 7.69 0.66 -3.90
CHANNELS 6 Xposition Yposition Zposition Zrotation Xrotation Yrotation
JOINT lPinky2
{
OFFSET 3.21 0 0
CHANNELS 6 Xposition Yposition Zposition Zrotation Xrotation Yrotation
JOINT lPinky3
{
OFFSET 1.92 0 0
CHANNELS 6 Xposition Yposition Zposition Zrotation Xrotation Yrotation
End Site
{
OFFSET 1.78 0 0
}
}
}
}
}
}
}
}
JOINT rCollar
{
OFFSET -4.06 26.61 -1.12
CHANNELS 6 Xposition Yposition Zposition Zrotation Xrotation Yrotation
JOINT rShldr
{
OFFSET -14.17 0 0
CHANNELS 6 Xposition Yposition Zposition Zrotation Xrotation Yrotation
JOINT rForeArm
{
OFFSET -26.12 0 0
CHANNELS 6 Xposition Yposition Zposition Zrotation Xrotation Yrotation
JOINT rHand
{
OFFSET -27.71 0 0
CHANNELS 6 Xposition Yposition Zposition Zrotation Xrotation Yrotation
JOINT rThumb1
{
OFFSET -2.29 -0.46 1.83
CHANNELS 6 Xposition Yposition Zposition Zrotation Xrotation Yrotation
JOINT rThumb2
{
OFFSET -5.29 0 0
CHANNELS 6 Xposition Yposition Zposition Zrotation Xrotation Yrotation
JOINT rThumb3
{
OFFSET -3.01 0 0
CHANNELS 6 Xposition Yposition Zposition Zrotation Xrotation Yrotation
End Site
{
OFFSET -2.62 0 0
}
}
}
}
JOINT rIndex1
{
OFFSET -9.37 0.29 2.59
CHANNELS 6 Xposition Yposition Zposition Zrotation Xrotation Yrotation
JOINT rIndex2
{
OFFSET -4.34 0 0
CHANNELS 6 Xposition Yposition Zposition Zrotation Xrotation Yrotation
JOINT rIndex3
{
OFFSET -2.16 0 0
CHANNELS 6 Xposition Yposition Zposition Zrotation Xrotation Yrotation
End Site
{
OFFSET -2.20 0 0
}
}
}
}
JOINT rMid1
{
OFFSET -9.47 0.83 0.29
CHANNELS 6 Xposition Yposition Zposition Zrotation Xrotation Yrotation
JOINT rMid2
{
OFFSET -4.77 0 0
CHANNELS 6 Xposition Yposition Zposition Zrotation Xrotation Yrotation
JOINT rMid3
{
OFFSET -2.87 0 0
CHANNELS 6 Xposition Yposition Zposition Zrotation Xrotation Yrotation
End Site
{
OFFSET -2.09 0 0
}
}
}
}
JOINT rRing1
{
OFFSET -8.65 1.01 -1.70
CHANNELS 6 Xposition Yposition Zposition Zrotation Xrotation Yrotation
JOINT rRing2
{
OFFSET -4.54 0 0
CHANNELS 6 Xposition Yposition Zposition Zrotation Xrotation Yrotation
JOINT rRing3
{
OFFSET -2.50 0 0
CHANNELS 6 Xposition Yposition Zposition Zrotation Xrotation Yrotation
End Site
{
OFFSET -2.20 0 0
}
}
}
}
JOINT rPinky1
{
OFFSET -7.69 0.66 -3.90
CHANNELS 6 Xposition Yposition Zposition Zrotation Xrotation Yrotation
JOINT rPinky2
{
OFFSET -3.21 0 0
CHANNELS 6 Xposition Yposition Zposition Zrotation Xrotation Yrotation
JOINT rPinky3
{
OFFSET -1.92 0 0
CHANNELS 6 Xposition Yposition Zposition Zrotation Xrotation Yrotation
End Site
{
OFFSET -1.78 0 0
}
}
}
}
}
}
}
}
}
}
JOINT lThigh
{
OFFSET 8.73 -0 0
CHANNELS 6 Xposition Yposition Zposition Zrotation Xrotation Yrotation
JOINT lShin
{
OFFSET 0 -46.66 0
CHANNELS 6 Xposition Yposition Zposition Zrotation Xrotation Yrotation
JOINT lFoot
{
OFFSET 0 -40.14 0
CHANNELS 6 Xposition Yposition Zposition Zrotation Xrotation Yrotation
JOINT lToes
{
OFFSET 0 -8.88 14.22
CHANNELS 6 Xposition Yposition Zposition Zrotation Xrotation Yrotation
End Site
{
OFFSET 0 0 6.29
}
}
}
}
}
JOINT rThigh
{
OFFSET -8.73 0 -0
CHANNELS 6 Xposition Yposition Zposition Zrotation Xrotation Yrotation
JOINT rShin
{
OFFSET 0 -46.66 0
CHANNELS 6 Xposition Yposition Zposition Zrotation Xrotation Yrotation
JOINT rFoot
{
OFFSET 0 -40.14 0
CHANNELS 6 Xposition Yposition Zposition Zrotation Xrotation Yrotation
JOINT rToes
{
OFFSET 0 -8.88 14.22
CHANNELS 6 Xposition Yposition Zposition Zrotation Xrotation Yrotation
End Site
{
OFFSET 0 0 6.29
}
}
}
}
}
}
MOTION
Frames: 6
Frame Time: 0.03
-1.16 95.32 0.70 -0.28 -1.71 -2.57 0 7.23 0 0.28 -2.30 -0.21 0 16.54 0 0.64 -2.74 -0.45 0 34.21 0 3.69 31.14 0.99 0 6.29 0 1.74 -26.29 11.84 4.06 26.61 -1.12 20.30 -5.37 17.74 14.17 0 0 -22.46 -27.70 2.44 26.12 0 0 -0.13 0.01 -8.78 27.71 0 0 -2.90 -52.12 -16.25 2.29 -0.46 1.83 62.16 47.20 -66.51 5.29 0 0 -22.33 -2.66 3.90 3.01 0 0 -58.71 -8.93 4.45 9.37 0.29 2.59 -55.95 -5.83 8.54 4.34 0 0 -108.89 -17.00 12.38 2.16 0 0 -51.70 -4.85 9.54 9.47 0.83 0.29 -62.21 -9.73 8.81 4.77 0 0 -108.46 -21.08 15.33 2.87 0 0 -47.01 -4.99 13.18 8.65 1.01 -1.70 -65.70 -3.55 10.45 4.54 0 0 -91.94 -9.29 8.98 2.50 0 0 -39.60 -1.99 6.76 7.69 0.66 -3.90 -78.40 -17.46 16.55 3.21 0 0 -96.44 -19.66 21.91 1.92 0 0 -42.10 -5.45 15.89 -4.06 26.61 -1.12 -17.51 -4.82 -12.53 -14.17 0 0 12.51 -14.75 -10.11 -26.12 0 0 0.04 0 2.98 -27.71 0 0 14.24 -46.56 18.09 -2.29 -0.46 1.83 -35.56 61.51 67.76 -5.29 0 0 34.12 -2.40 -7.55 -3.01 0 0 24.12 -4.23 -10.04 -9.37 0.29 2.59 69.23 -8.22 -9.63 -4.34 0 0 125.13 -20.27 -10.74 -2.16 0 0 21.36 -0.87 -4.17 -9.47 0.83 0.29 66.93 -10.64 -9.65 -4.77 0 0 100.53 -19.08 -15.97 -2.87 0 0 34.76 -2.43 -10.59 -8.65 1.01 -1.70 67.62 -3.95 -11.06 -4.54 0 0 99.96 -10.61 -8.91 -2.50 0 0 23.61 -0.52 -4.65 -7.69 0.66 -3.90 60.53 -14.18 -11.19 -3.21 0 0 95.75 -23.77 -21.55 -1.92 0 0 50.27 -7.72 -18.12 8.73 -0 0 8.37 -4.99 14.98 0 -46.66 0 2.34 21.45 -4.88 0 -40.14 0 -6.89 -13.28 6.55 0 -8.88 14.22 0 0 0 -8.73 0 -0 -6.18 -7.38 -23.04 0 -46.66 0 -6.70 22.45 11.27 0 -40.14 0 6.02 -12.80 -7.45 0 -8.88 14.22 0 0 0 
-1.19 95.32 0.69 -0.32 -1.50 -2.65 0 7.23 0 0.29 -2.35 -0.18 0 16.54 0 0.67 -2.85 -0.39 0 34.21 0 3.81 31.17 0.96 0 6.29 0 1.73 -26.29 11.92 4.06 26.61 -1.12 20.72 -5.33 18.07 14.17 0 0 -22.14 -28.01 2.85 26.12 0 0 -0.12 0 -8.30 27.71 0 0 -2.54 -52.43 -16.11 2.29 -0.46 1.83 62.39 47.05 -66.55 5.29 0 0 -22.13 -2.59 3.89 3.01 0 0 -58.13 -8.90 4.41 9.37 0.29 2.59 -56.05 -5.85 8.59 4.34 0 0 -109.25 -17.07 12.35 2.16 0 0 -51.85 -4.88 9.56 9.47 0.83 0.29 -62.35 -9.76 8.88 4.77 0 0 -108.63 -21.12 15.31 2.87 0 0 -47.25 -5.04 13.23 8.65 1.01 -1.70 -65.82 -3.57 10.25 4.54 0 0 -92.27 -9.34 8.97 2.50 0 0 -39.57 -1.99 6.76 7.69 0.66 -3.90 -78.48 -17.48 16.44 3.21 0 0 -96.74 -19.77 21.92 1.92 0 0 -42.35 -5.52 15.97 -4.06 26.61 -1.12 -17.75 -4.83 -12.66 -14.17 0 0 12.04 -14.71 -11.15 -26.12 0 0 0.04 0 2.91 -27.71 0 0 14.02 -47.60 18.03 -2.29 -0.46 1.83 -37.86 60.17 68.94 -5.29 0 0 31.98 -1.91 -7.06 -3.01 0 0 19.31 -3.42 -9.08 -9.37 0.29 2.59 62.69 -6.99 -7.08 -4.34 0 0 121.44 -19.60 -11.21 -2.16 0 0 21.64 -0.89 -4.23 -9.47 0.83 0.29 61.51 -9.65 -8.71 -4.77 0 0 98.18 -18.44 -16.09 -2.87 0 0 34.29 -2.45 -10.49 -8.65 1.01 -1.70 62.54 -3.03 -10.48 -4.54 0 0 95.14 -9.86 -9.01 -2.50 0 0 22.22 -0.51 -4.46 -7.69 0.66 -3.90 57.76 -13.69 -10.50 -3.21 0 0 93.01 -22.78 -21.64 -1.92 0 0 47.13 -6.82 -17.32 8.73 -0 0 8.41 -5.19 14.94 0 -46.66 0 2.39 21.45 -4.73 0 -40.14 0 -6.97 -13.28 6.53 0 -8.88 14.22 0 0 0 -8.73 0 -0 -6.12 -7.58 -23.00 0 -46.66 0 -6.65 22.42 11.26 0 -40.14 0 5.97 -12.77 -7.46 0 -8.88 14.22 0 0 -0 
-1.22 95.32 0.67 -0.36 -1.29 -2.68 0 7.23 0 0.31 -2.39 -0.14 0 16.54 0 0.70 -2.92 -0.32 0 34.21 0 3.91 31.22 0.94 0 6.29 0 1.72 -26.34 12.01 4.06 26.61 -1.12 21.14 -5.26 18.47 14.17 0 0 -21.90 -28.51 3.35 26.12 0 0 -0.12 0 -8.24 27.71 0 0 -2.62 -52.46 -16.50 2.29 -0.46 1.83 62.71 47.02 -66.58 5.29 0 0 -22.48 -2.72 3.91 3.01 0 0 -54.39 -8.74 4.30 9.37 0.29 2.59 -55.64 -5.78 9.03 4.34 0 0 -109.67 -17.16 12.32 2.16 0 0 -51.86 -4.88 9.56 9.47 0.83 0.29 -61.50 -9.61 9.41 4.77 0 0 -108.84 -21.18 15.29 2.87 0 0 -47.18 -5.02 13.22 8.65 1.01 -1.70 -64.76 -3.38 9.97 4.54 0 0 -92.59 -9.39 8.97 2.50 0 0 -39.16 -1.95 6.71 7.69 0.66 -3.90 -77.67 -17.32 16.06 3.21 0 0 -95.86 -19.44 21.89 1.92 0 0 -41.97 -5.42 15.86 -4.06 26.61 -1.12 -17.95 -4.84 -12.76 -14.17 0 0 11.55 -14.55 -12.33 -26.12 0 0 0.04 0 2.81 -27.71 0 0 14.08 -48.93 17.99 -2.29 -0.46 1.83 -41.73 58.27 70.56 -5.29 0 0 30.35 -1.55 -6.70 -3.01 0 0 15.61 -2.81 -8.36 -9.37 0.29 2.59 50.73 -4.94 -2.45 -4.34 0 0 115.30 -18.41 -11.89 -2.16 0 0 20.53 -0.80 -4.00 -9.47 0.83 0.29 52.10 -8.08 -7.31 -4.77 0 0 94.09 -17.31 -16.21 -2.87 0 0 32.96 -2.31 -10.19 -8.65 1.01 -1.70 55.03 -1.76 -9.64 -4.54 0 0 87.38 -8.64 -9.04 -2.50 0 0 20.29 -0.50 -4.19 -7.69 0.66 -3.90 53.73 -13.02 -9.89 -3.21 0 0 87.69 -20.81 -21.65 -1.92 0 0 42.71 -5.63 -16.12 8.73 -0 0 8.46 -5.42 14.91 0 -46.66 0 2.43 21.47 -4.64 0 -40.14 0 -7.03 -13.27 6.52 0 -8.88 14.22 0 0 0 -8.73 0 -0 -6.07 -7.79 -22.97 0 -46.66 0 -6.59 22.40 11.23 0 -40.14 0 5.92 -12.75 -7.46 0 -8.88 14.22 0 0 0 
-1.26 95.32 0.63 -0.39 -1.10 -2.66 0 7.23 0 0.32 -2.41 -0.10 0 16.54 0 0.72 -2.96 -0.24 0 34.21 0 4.01 31.30 0.92 0 6.29 0 1.71 -26.36 12.08 4.06 26.61 -1.12 21.58 -5.17 18.90 14.17 0 0 -21.65 -29.18 3.99 26.12 0 0 -0.12 0 -8.54 27.71 0 0 -3.22 -52.20 -17.42 2.29 -0.46 1.83 63.11 47.20 -66.62 5.29 0 0 -23.31 -3.02 3.97 3.01 0 0 -46.71 -8.26 4.29 9.37 0.29 2.59 -52.95 -5.35 9.80 4.34 0 0 -108.71 -16.96 12.39 2.16 0 0 -50.90 -4.71 9.43 9.47 0.83 0.29 -58.07 -9.02 10.50 4.77 0 0 -108.5 -21.09 15.32 2.87 0 0 -45.99 -4.78 12.98 8.65 1.01 -1.70 -61.28 -2.77 10.10 4.54 0 0 -91.94 -9.29 8.98 2.50 0 0 -37.92 -1.83 6.56 7.69 0.66 -3.90 -74.86 -16.78 15.51 3.21 0 0 -92.24 -18.07 21.69 1.92 0 0 -40.10 -4.96 15.32 -4.06 26.61 -1.12 -18.14 -4.84 -12.86 -14.17 0 0 11.16 -14.33 -13.61 -26.12 0 0 0.04 0 2.67 -27.71 0 0 14.42 -50.41 17.93 -2.29 -0.46 1.83 -46.76 55.87 72.38 -5.29 0 0 29.27 -1.31 -6.46 -3.01 0 0 13.84 -2.52 -8.02 -9.37 0.29 2.59 35.25 -2.81 3.33 -4.34 0 0 108.01 -16.90 -12.51 -2.16 0 0 18.25 -0.63 -3.52 -9.47 0.83 0.29 40.06 -6.39 -5.66 -4.77 0 0 88.66 -15.80 -16.25 -2.87 0 0 30.89 -2.01 -9.69 -8.65 1.01 -1.70 46.14 -0.43 -8.84 -4.54 0 0 78.38 -7.23 -8.86 -2.50 0 0 18.12 -0.48 -3.88 -7.69 0.66 -3.90 48.66 -12.23 -9.85 -3.21 0 0 80.32 -18.07 -21.34 -1.92 0 0 37.28 -4.31 -14.54 8.73 -0 0 8.52 -5.64 14.92 0 -46.66 0 2.45 21.50 -4.64 0 -40.14 0 -7.06 -13.26 6.51 0 -8.88 14.22 0 0 0 -8.73 0 -0 -6.02 -7.98 -22.94 0 -46.66 0 -6.51 22.40 11.15 0 -40.14 0 5.86 -12.73 -7.47 0 -8.88 14.22 0 0 0 
-1.30 95.32 0.59 -0.43 -0.94 -2.57 0 7.23 0 0.33 -2.41 -0.08 0 16.54 0 0.74 -2.97 -0.19 0 34.21 0 4.10 31.42 0.90 0 6.29 0 1.69 -26.32 12.15 4.06 26.61 -1.12 21.99 -5.07 19.33 14.17 0 0 -21.32 -29.82 4.75 26.12 0 0 -0.13 0.01 -9.00 27.71 0 0 -3.91 -51.85 -18.32 2.29 -0.46 1.83 63.61 47.60 -66.66 5.29 0 0 -23.91 -3.23 4.01 3.01 0 0 -37.17 -7.30 4.47 9.37 0.29 2.59 -45.81 -4.29 10.23 4.34 0 0 -104.05 -15.96 12.70 2.16 0 0 -48.06 -4.23 9.01 9.47 0.83 0.29 -50.85 -7.85 11.80 4.77 0 0 -106.44 -20.56 15.50 2.87 0 0 -43.10 -4.21 12.40 8.65 1.01 -1.70 -54.99 -1.72 11.15 4.54 0 0 -89.09 -8.84 8.98 2.50 0 0 -35.60 -1.61 6.26 7.69 0.66 -3.90 -69.53 -15.75 15.03 3.21 0 0 -85.36 -15.49 21.08 1.92 0 0 -36.60 -4.14 14.29 -4.06 26.61 -1.12 -18.37 -4.84 -12.96 -14.17 0 0 10.97 -14.16 -14.90 -26.12 0 0 0.03 0 2.57 -27.71 0 0 15.13 -51.83 18.01 -2.29 -0.46 1.83 -52.24 53.17 74.10 -5.29 0 0 28.53 -1.14 -6.29 -3.01 0 0 13.49 -2.47 -7.97 -9.37 0.29 2.59 19.74 -1.44 8.50 -4.34 0 0 101.66 -15.53 -12.89 -2.16 0 0 15.61 -0.46 -2.95 -9.47 0.83 0.29 27.47 -5.07 -4.20 -4.77 0 0 82.98 -14.20 -16.13 -2.87 0 0 28.71 -1.66 -9.16 -8.65 1.01 -1.70 36.96 0.72 -8.48 -4.54 0 0 70.31 -6.00 -8.52 -2.50 0 0 16.05 -0.48 -3.58 -7.69 0.66 -3.90 42.86 -11.39 -10.55 -3.21 0 0 72.54 -15.21 -20.62 -1.92 0 0 31.43 -3.06 -12.72 8.73 -0 0 8.60 -5.87 14.95 0 -46.66 0 2.48 21.53 -4.73 0 -40.14 0 -7.08 -13.24 6.50 0 -8.88 14.22 0 0 0 -8.73 0 -0 -5.96 -8.14 -22.92 0 -46.66 0 -6.43 22.40 11.00 0 -40.14 0 5.82 -12.70 -7.47 0 -8.88 14.22 0 0 -0 
-1.34 95.32 0.55 -0.47 -0.78 -2.44 0 7.23 0 0.34 -2.41 -0.07 0 16.54 0 0.75 -2.96 -0.18 0 34.21 0 4.18 31.57 0.88 0 6.29 0 1.64 -26.19 12.21 4.06 26.61 -1.12 22.36 -4.97 19.70 14.17 0 0 -20.90 -30.25 5.60 26.12 0 0 -0.14 0.01 -9.41 27.71 0 0 -4.22 -51.70 -18.55 2.29 -0.46 1.83 64.28 48.05 -66.71 5.29 0 0 -23.47 -3.08 3.98 3.01 0 0 -29.36 -6.16 4.71 9.37 0.29 2.59 -33.57 -2.80 9.42 4.34 0 0 -94.63 -13.88 13.05 2.16 0 0 -43.26 -3.46 8.26 9.47 0.83 0.29 -40.11 -6.32 12.44 4.77 0 0 -101.79 -19.33 15.83 2.87 0 0 -38.90 -3.43 11.51 8.65 1.01 -1.70 -46.92 -0.49 13.03 4.54 0 0 -83.64 -7.99 8.93 2.50 0 0 -32.50 -1.34 5.86 7.69 0.66 -3.90 -62.44 -14.42 14.84 3.21 0 0 -76.84 -12.40 19.88 1.92 0 0 -32.52 -3.27 13.02 -4.06 26.61 -1.12 -18.64 -4.85 -13.06 -14.17 0 0 11.01 -14.04 -16.13 -26.12 0 0 0.03 0 2.54 -27.71 0 0 16.23 -52.97 18.44 -2.29 -0.46 1.83 -57.55 50.35 75.58 -5.29 0 0 27.89 -1.00 -6.15 -3.01 0 0 13.67 -2.50 -8.00 -9.37 0.29 2.59 6.62 -0.97 11.92 -4.34 0 0 97.32 -14.56 -13.06 -2.16 0 0 13.41 -0.33 -2.48 -9.47 0.83 0.29 15.54 -4.31 -3.07 -4.77 0 0 77.78 -12.75 -15.88 -2.87 0 0 26.97 -1.37 -8.72 -8.65 1.01 -1.70 28.12 1.61 -8.57 -4.54 0 0 64.12 -5.10 -8.14 -2.50 0 0 14.26 -0.51 -3.32 -7.69 0.66 -3.90 36.78 -10.58 -11.62 -3.21 0 0 65.99 -12.87 -19.71 -1.92 0 0 26.04 -2.09 -10.95 8.73 -0 0 8.67 -6.10 14.98 0 -46.66 0 2.51 21.57 -4.86 0 -40.14 0 -7.09 -13.21 6.49 0 -8.88 14.22 0 0 0 -8.73 0 -0 -5.91 -8.28 -22.89 0 -46.66 0 -6.36 22.39 10.81 0 -40.14 0 5.79 -12.68 -7.47 0 -8.88 14.22 0 0 0 
